<svg xmlns="http://www.w3.org/2000/svg" xmlns:xlink="http://www.w3.org/1999/xlink" width="195" height="45" viewBox="0 0 195 45">
    <defs>
        <path id="prefix__a" d="M0.548 0.527L41.274 0.527 41.274 40.818 0.548 40.818z"/>
        <path id="prefix__c" d="M0 44.93L193.553 44.93 193.553 0.568 0 0.568z"/>
    </defs>
    <g fill="none" fill-rule="evenodd">
        <path fill="#228BC4" d="M147.724 34.377l-7.888-13.663 7.888-13.663h15.777l3.21 5.558c.108.188.308.305.525.305h6.084c.467 0 .759-.507.525-.911l-5.016-8.69c-.978-1.692-2.8-2.745-4.755-2.745h-16.923c-1.955 0-3.776 1.053-4.754 2.745l-8.462 14.657c-.977 1.693-.977 3.796 0 5.49l8.462 14.655c.978 1.694 2.8 2.745 4.754 2.745h9.308c.468 0 .76-.506.526-.91l-3.042-5.27c-.108-.187-.308-.303-.525-.303h-5.694z"/>
        <g transform="translate(152.279 .041)">
            <mask id="prefix__b" fill="#fff">
                <use xlink:href="#prefix__a"/>
            </mask>
            <path fill="#1F4280" d="M26.752 7.01l7.888 13.663-7.888 13.663H10.975l-3.21-5.559c-.107-.187-.309-.304-.525-.304H1.156c-.467 0-.759.506-.525.91l5.016 8.69c.978 1.693 2.8 2.745 4.755 2.745h16.923c1.954 0 3.776-1.052 4.754-2.745l8.462-14.656c.977-1.693.977-3.797 0-5.49L32.078 3.272C31.101 1.578 29.28.527 27.325.527h-9.308c-.468 0-.76.506-.527.91l3.043 5.27c.108.187.308.303.525.303h5.694z" mask="url(#prefix__b)"/>
        </g>
        <path fill="#1F4281" d="M81.904 26.624L81.904 40.866 83.979 40.866 83.979 35.313 87.895 41.052 89.941 40.28 86.321 35.393 89.07 31.925 87.224 30.995 83.979 35.271 83.979 26.624zM68.575 40.867L66.263 40.867 66.263 28.506 61.509 28.506 61.509 26.624 73.237 26.624 73.237 28.506 68.575 28.506zM103.833 40.867h-2.182V32.69h-1.467v-1.834h1.467v-.184c0-1.458.336-2.486 1.008-3.11.656-.612 1.525-.938 2.577-.938.383 0 1.664.175 1.664.175v1.76s-1.106-.13-1.386-.13c-.475 0-.894.122-1.224.352-.213.13-.457.533-.457 1.587v.488h2.931v1.834h-2.931v8.177z"/>
        <mask id="prefix__d" fill="#fff">
            <use xlink:href="#prefix__c"/>
        </mask>
        <path fill="#1F4281" d="M13.434 40.87L15.54 40.87 15.54 26.624 13.434 26.624zM5.236 27.332L0 40.87h1.993l1.358-3.798h5.052l1.23 3.798h2.447L7.257 27.332h-2.02zm.74 2.396l1.985 6.004H3.825l2.152-6.004zM55.017 40.87L57.123 40.87 57.123 31.301 55.017 31.301zM55.017 29.711L57.123 29.711 57.123 27.848 55.017 27.848zM39.972 29.711L42.078 29.711 42.078 27.848 39.972 27.848zM44.207 26.624v14.242h2.107v-5.734c0-1.619.929-2.672 2.35-2.672 1.334 0 2.112.876 2.112 2.502v5.904h2.108V34.65c0-2.39-1.086-3.595-3.206-3.595-1.206 0-2.321.49-3.09 1.36l-.298.335v-6.126h-2.083zM116.73 40.867V31.33h-2.107v5.77c0 1.6-.93 2.656-2.359 2.656-1.334 0-2.112-.886-2.112-2.475V31.33h-2.107v6.228c0 2.397 1.084 3.593 3.204 3.593 1.223 0 2.321-.48 3.083-1.353l.306-.332v1.401h2.091zM20.28 27.332v13.534h2.106V35.16h1.77s2.642 5.707 2.756 5.94c.205-.047 2.052-.4 2.42-.468-.213-.42-3.085-5.89-3.085-5.89l.147-.089c1.427-.895 2.144-2.146 2.144-3.87 0-2.168-1.525-3.45-4.06-3.45H20.28zm2.106 1.34h1.741c1.42 0 2.276.92 2.276 2.351 0 1.282-.803 2.796-2.581 2.796h-1.436v-5.146zM39.973 31.299v9.656c0 1.088-.169 2.036-.366 2.524-.168.38-.543.657-.962.78v.67c2.41-.033 3.434-1.253 3.434-4.062V31.3h-2.106zM34.362 31.055c-1.314 0-2.367.396-3.375 1.22.123.186.491.742.628.963.747-.656 1.504-.947 2.426-.947.963 0 1.633.726 1.77 1.695l.015.15-2.242.692c-2.29.698-3.365 1.798-3.365 3.448 0 1.646 1.058 2.838 2.54 2.838 1.999 0 3.136-1.894 3.136-1.894v1.647h2.16v-6.285c0-2.336-1.237-3.527-3.693-3.527m.626 7.967c-.383.445-.87.671-1.33.671-.73 0-1.296-.718-1.296-1.617 0-1.234.656-2.057 1.963-2.474l1.378-.485.232-.079.014.243c.137 2.17-.542 3.275-.961 3.74M75.91 31.055c-1.319 0-2.373.396-3.378 1.22.129.186.487.742.624.963.749-.656 1.51-.947 2.442-.947.947 0 1.625.726 1.763 1.695l.007.15-2.243.692c-2.273.698-3.357 1.798-3.357 3.448 0 1.646 1.06 2.838 2.533 2.838 1.999 0 3.144-1.894 3.144-1.894v1.647h2.15v-6.285c0-2.336-1.234-3.527-3.684-3.527m.618 7.967c-.395.445-.855.671-1.327.671-.733 0-1.297-.718-1.297-1.617 0-1.234.656-2.057 1.951-2.474l1.375-.485.245-.079.013.243c.14 2.17-.532 3.275-.96 3.74M95.062 31.055c-1.327 0-2.39.396-3.388 1.22.123.186.473.742.61.963.764-.656 1.526-.947 2.442-.947.977 0 1.632.726 1.77 1.695l.022.15-2.236.692c-2.295.698-3.37 1.798-3.37 3.448 0 1.646 1.075 2.838 2.525 2.838 2.008 0 3.136-1.894 3.136-1.894v1.647h2.167v-6.285c0-2.336-1.244-3.527-3.678-3.527m.61 7.967c-.381.445-.854.671-1.335.671-.717 0-1.304-.718-1.304-1.617 0-1.234.654-2.057 1.968-2.474l1.404-.485.214-.079.016.243c.136 2.17-.536 3.275-.963 3.74M118.468 40.87L120.588 40.87 120.588 26.624 118.468 26.624zM3.772 22.356L6.369 22.356 6.369 20.065 3.772 20.065zM7.401 22.356L9.999 22.356 9.999 20.065 7.401 20.065zM35.575 20.734L38.173 20.734 38.173 18.469 35.575 18.469zM87.993 2.827L90.591 2.827 90.591.59 87.993.59zM35.48 5.517c-.605 0-1.198.063-1.777.158v1.888s.694-.392 1.904-.392c2.659 0 5.477 2.488 5.477 7.047 0 .042-.007.427-.079.647h-9.177v-.605c0-5.139-3.48-8.743-8.458-8.743-.64 0-1.266.07-1.872.174v1.841l.071.031s.691-.392 1.92-.392c2.657 0 5.474 2.488 5.474 7.047l-.013.647H18.636V5.517h-2.33c-6.324 0-6.53 3.241-6.53 7.065v2.356c0 1.86-.653 2.224-1.65 2.224H6.092c-1.288 0-3.412-.19-3.412-4.862 0-3.956 1.73-5.257 5.177-5.234v-1.55c-2.651.014-4.327.518-5.87 1.997C.653 8.802.094 10.161.094 12.333c0 4.844 2.132 6.48 5.041 6.48h3.652c2.312 0 3.603-1.447 3.603-4.122v-2.469c0-3.244.47-5.071 3.658-5.071v9.383H43.65c.265-1.102.315-2.44.315-2.44-.126-5.05-3.557-8.577-8.484-8.577M118.093 4.395L120.698 4.395 120.698 2.111 118.093 2.111zM114.467 4.395L117.071 4.395 117.071 2.111 114.467 2.111zM46.449 16.534L49.048 16.534 49.048.578 46.449.578zM90.797 11.246h-2.013c-1.125 0-2.037-.912-2.037-2.038 0-1.125.912-2.037 2.037-2.037h2.013v4.075zm.442-5.716h-2.998c-1.992 0-3.606 1.615-3.606 3.606 0 1.992 1.614 3.606 3.606 3.606h2.619v.251c0 1.24-.581 1.918-1.703 1.918H81.25V.589h-2.595v14.362c0 1.863-.645 2.225-1.66 2.225h-2.023c-1.29 0-3.415-.19-3.415-4.86 0-3.958 1.732-5.26 5.162-5.236V5.53c-2.634.015-4.312.097-5.853 1.577-1.338 1.287-1.92 3.068-1.92 5.24 0 4.844 2.14 6.481 5.067 6.481h3.65c1.7 0 2.833-.801 3.32-2.28h8.8c1.186 0 2.085-.41 2.743-1.274.584-.754.875-1.684.875-2.786V5.533H91.24V5.53zM56.771 12.46c0 2.01-.952 2.404-1.746 2.404h-.913V5.516h-2.573v11.125c0 1.465 0 2.237-.449 3.085-.219.43-.676.818-1.194.994v.786c2.951-.05 4.216-1.558 4.216-4.972h1.54c1.224 0 2.142-.427 2.82-1.29.596-.774.895-1.733.895-2.872V.576H56.77v11.883zM61.838 16.534L64.436 16.534 64.436.578 61.838.578z" mask="url(#prefix__d)"/>
        <path fill="#1F4281" d="M118.103 5.408v7.044c0 2.012-.96 2.406-1.747 2.406h-2.99v-.646c0-4.757-2.984-8.192-7.377-8.678l7.506-4.956h-2.817l-7.643 5.065v1.841l.072.032s.691-.392 1.92-.392c2.657 0 5.474 2.487 5.474 7.048l-.012.686h-8.755c-.786 0-1.731-.394-1.731-2.406V.568h-2.58v11.797c0 1.14.298 2.099.896 2.873.674.861 1.59 1.288 2.809 1.288h15.858c1.226 0 2.14-.427 2.8-1.288.6-.774.913-1.734.913-2.873V5.408h-2.596z" mask="url(#prefix__d)"/>
    </g>
</svg>
