<?xml version="1.0" encoding="UTF-8"?>
<svg xmlns="http://www.w3.org/2000/svg" xmlns:xlink="http://www.w3.org/1999/xlink" width="300px" height="89px" viewBox="0 0 299 89" version="1.1">
<g id="surface1">
<path style=" stroke:none;fill-rule:nonzero;fill:rgb(65.882353%,66.27451%,81.176471%);fill-opacity:1;" d="M 50.132812 18.21875 C 50.132812 18.21875 23.628906 2.835938 9.648438 15.550781 C 9.230469 16.09375 9.148438 16.886719 9.523438 17.46875 C 9.648438 17.675781 13.144531 23.097656 21.421875 23.097656 C 25.585938 23.097656 28.871094 21.097656 32.074219 19.136719 C 35.15625 17.261719 38.066406 15.46875 41.644531 15.46875 C 44.808594 15.507812 47.429688 16.71875 50.132812 18.21875 "/>
<path style=" stroke:none;fill-rule:nonzero;fill:rgb(65.882353%,66.27451%,81.176471%);fill-opacity:1;" d="M 80.257812 26.808594 C 80.007812 26.140625 79.386719 25.722656 78.679688 25.765625 C 78.429688 25.765625 72.0625 26.097656 67.902344 33.394531 C 65.820312 37.023438 65.902344 40.898438 65.988281 44.695312 C 66.070312 48.320312 66.113281 51.78125 64.324219 54.910156 C 62.742188 57.660156 60.371094 59.371094 57.75 60.953125 C 57.75 60.910156 84.171875 45.402344 80.257812 26.808594 "/>
<path style=" stroke:none;fill-rule:nonzero;fill:rgb(65.882353%,66.27451%,81.176471%);fill-opacity:1;" d="M 35.613281 68.832031 C 33.53125 65.207031 30.160156 63.332031 26.914062 61.496094 C 23.753906 59.746094 20.800781 58.078125 19.011719 54.949219 C 17.429688 52.199219 17.179688 49.28125 17.097656 46.152344 C 17.097656 46.152344 17.179688 77.089844 35.070312 82.96875 C 35.738281 83.09375 36.445312 82.71875 36.777344 82.089844 C 36.859375 81.882812 39.773438 76.128906 35.613281 68.832031 "/>
<path style=" stroke:none;fill-rule:nonzero;fill:rgb(41.960784%,27.843137%,96.078431%);fill-opacity:1;" d="M 9.648438 15.550781 C 17.554688 5.753906 29.203125 0.125 41.6875 0.125 C 54.128906 0.125 65.820312 5.753906 73.683594 15.550781 C 74.144531 16.136719 74.183594 16.96875 73.726562 17.59375 C 73.558594 17.800781 69.855469 22.597656 61.910156 22.597656 C 57.957031 22.597656 54.667969 20.761719 51.507812 18.96875 C 51.050781 18.71875 50.632812 18.46875 50.175781 18.21875 C 50.132812 18.21875 23.628906 2.792969 9.648438 15.550781 "/>
<path style=" stroke:none;fill-rule:nonzero;fill:rgb(41.960784%,27.843137%,96.078431%);fill-opacity:1;" d="M 80.257812 26.808594 C 84.710938 38.605469 83.714844 51.65625 77.472656 62.578125 C 71.230469 73.460938 60.578125 80.882812 48.21875 82.882812 C 47.472656 83.007812 46.761719 82.59375 46.472656 81.882812 C 46.390625 81.632812 44.101562 76.003906 48.09375 69 C 50.09375 65.539062 53.296875 63.582031 56.417969 61.703125 C 56.875 61.453125 57.289062 61.164062 57.707031 60.910156 C 57.75 60.910156 84.171875 45.402344 80.257812 26.808594 "/>
<path style=" stroke:none;fill-rule:nonzero;fill:rgb(41.960784%,27.843137%,96.078431%);fill-opacity:1;" d="M 35.070312 82.96875 C 22.714844 80.964844 12.0625 73.542969 5.820312 62.664062 C -0.421875 51.78125 -1.421875 38.730469 3.03125 26.890625 C 3.28125 26.183594 4.03125 25.765625 4.738281 25.847656 C 4.988281 25.890625 10.9375 26.722656 14.933594 33.6875 C 16.929688 37.148438 16.972656 40.941406 17.011719 44.609375 C 17.011719 45.109375 17.011719 45.652344 17.054688 46.152344 C 17.097656 46.152344 17.136719 77.089844 35.070312 82.96875 "/>
<path style=" stroke:none;fill-rule:nonzero;fill:rgb(65.882353%,66.27451%,81.176471%);fill-opacity:1;" d="M 50.132812 18.21875 C 50.132812 18.21875 23.628906 2.835938 9.648438 15.550781 C 9.230469 16.09375 9.148438 16.886719 9.523438 17.46875 C 9.648438 17.675781 13.144531 23.097656 21.421875 23.097656 C 25.585938 23.097656 28.871094 21.097656 32.074219 19.136719 C 35.15625 17.261719 38.066406 15.46875 41.644531 15.46875 C 44.808594 15.507812 47.429688 16.71875 50.132812 18.21875 "/>
<path style=" stroke:none;fill-rule:nonzero;fill:rgb(65.882353%,66.27451%,81.176471%);fill-opacity:1;" d="M 80.257812 26.808594 C 80.007812 26.140625 79.386719 25.722656 78.679688 25.765625 C 78.429688 25.765625 72.0625 26.097656 67.902344 33.394531 C 65.820312 37.023438 65.902344 40.898438 65.988281 44.695312 C 66.070312 48.320312 66.113281 51.78125 64.324219 54.910156 C 62.742188 57.660156 60.371094 59.371094 57.75 60.953125 C 57.75 60.910156 84.171875 45.402344 80.257812 26.808594 "/>
<path style=" stroke:none;fill-rule:nonzero;fill:rgb(65.882353%,66.27451%,81.176471%);fill-opacity:1;" d="M 35.613281 68.832031 C 33.53125 65.207031 30.160156 63.332031 26.914062 61.496094 C 23.753906 59.746094 20.800781 58.078125 19.011719 54.949219 C 17.429688 52.199219 17.179688 49.28125 17.097656 46.152344 C 17.097656 46.152344 17.179688 77.089844 35.070312 82.96875 C 35.738281 83.09375 36.445312 82.71875 36.777344 82.089844 C 36.859375 81.882812 39.773438 76.128906 35.613281 68.832031 "/>
<path style=" stroke:none;fill-rule:nonzero;fill:rgb(41.960784%,27.843137%,96.078431%);fill-opacity:1;" d="M 9.648438 15.550781 C 17.554688 5.753906 29.203125 0.125 41.6875 0.125 C 54.128906 0.125 65.820312 5.753906 73.683594 15.550781 C 74.144531 16.136719 74.183594 16.96875 73.726562 17.59375 C 73.558594 17.800781 69.855469 22.597656 61.910156 22.597656 C 57.957031 22.597656 54.667969 20.761719 51.507812 18.96875 C 51.050781 18.71875 50.632812 18.46875 50.175781 18.21875 C 50.132812 18.21875 23.628906 2.792969 9.648438 15.550781 "/>
<path style=" stroke:none;fill-rule:nonzero;fill:rgb(41.960784%,27.843137%,96.078431%);fill-opacity:1;" d="M 80.257812 26.808594 C 84.710938 38.605469 83.714844 51.65625 77.472656 62.578125 C 71.230469 73.460938 60.578125 80.882812 48.21875 82.882812 C 47.472656 83.007812 46.761719 82.59375 46.472656 81.882812 C 46.390625 81.632812 44.101562 76.003906 48.09375 69 C 50.09375 65.539062 53.296875 63.582031 56.417969 61.703125 C 56.875 61.453125 57.289062 61.164062 57.707031 60.910156 C 57.75 60.910156 84.171875 45.402344 80.257812 26.808594 "/>
<path style=" stroke:none;fill-rule:nonzero;fill:rgb(41.960784%,27.843137%,96.078431%);fill-opacity:1;" d="M 35.070312 82.96875 C 22.714844 80.964844 12.0625 73.542969 5.820312 62.664062 C -0.421875 51.78125 -1.421875 38.730469 3.03125 26.890625 C 3.28125 26.183594 4.03125 25.765625 4.738281 25.847656 C 4.988281 25.890625 10.9375 26.722656 14.933594 33.6875 C 16.929688 37.148438 16.972656 40.941406 17.011719 44.609375 C 17.011719 45.109375 17.011719 45.652344 17.054688 46.152344 C 17.097656 46.152344 17.136719 77.089844 35.070312 82.96875 "/>
<path style=" stroke:none;fill-rule:nonzero;fill:rgb(19.215686%,18.039216%,32.156863%);fill-opacity:1;" d="M 182.742188 28.183594 L 177.75 28.183594 C 176.542969 28.183594 171.59375 28.101562 171.59375 22.640625 C 171.59375 18.96875 173.839844 16.71875 177.042969 16.71875 C 180.746094 16.71875 182.785156 19.429688 182.785156 24.847656 L 182.785156 28.183594 Z M 187.988281 24.429688 C 187.988281 17.261719 184.742188 12.257812 177.460938 12.257812 C 171.71875 12.257812 166.183594 15.46875 166.183594 22.804688 C 166.183594 30.101562 172.300781 32.644531 177.835938 32.644531 L 182.742188 32.644531 L 182.742188 33.355469 C 182.742188 36.230469 180.953125 39.230469 176.835938 39.230469 C 174.503906 39.230469 172.925781 38.605469 169.59375 36.9375 C 167.765625 39.191406 168.886719 41.023438 170.636719 41.902344 C 172.757812 42.941406 175.128906 43.484375 177.5 43.527344 C 185.15625 43.652344 187.988281 39.066406 187.988281 31.394531 Z M 187.988281 24.429688 "/>
<path style=" stroke:none;fill-rule:nonzero;fill:rgb(19.215686%,18.039216%,32.156863%);fill-opacity:1;" d="M 121.660156 22.222656 C 121.660156 24.097656 121.203125 25.558594 120.246094 26.597656 C 119.289062 27.640625 118 28.183594 116.292969 28.183594 C 114.585938 28.183594 113.378906 27.726562 112.464844 26.765625 C 111.550781 25.847656 111.050781 24.597656 111.050781 23.015625 C 111.050781 21.054688 111.800781 19.554688 113.253906 18.554688 C 114.710938 17.511719 116.875 17.011719 119.707031 17.011719 L 121.660156 17.011719 Z M 131.8125 32.6875 C 132.480469 32.6875 133.394531 32.6875 134.019531 32.6875 C 136.308594 32.6875 138.679688 32.769531 140.882812 31.976562 C 142.089844 31.519531 143.007812 30.726562 143.671875 29.601562 C 144.753906 31.644531 146.585938 32.6875 149.207031 32.6875 L 163.394531 32.6875 L 163.394531 13.089844 C 163.144531 12.925781 162.605469 12.839844 162.148438 12.714844 C 161.691406 12.632812 161.273438 12.589844 160.855469 12.589844 C 160.066406 12.589844 159.402344 12.800781 158.902344 13.214844 C 158.402344 13.632812 158.152344 14.21875 158.152344 15.007812 L 158.152344 28.265625 L 152.617188 28.265625 C 150.496094 28.265625 147.707031 28.351562 146.835938 25.933594 C 146.503906 25.058594 146.378906 23.847656 146.378906 22.261719 L 146.378906 13.132812 C 146.128906 12.964844 145.585938 12.882812 145.128906 12.757812 C 144.671875 12.675781 144.253906 12.632812 143.839844 12.632812 C 143.046875 12.632812 142.382812 12.839844 141.882812 13.257812 C 141.382812 13.675781 141.132812 14.257812 141.132812 15.050781 L 141.132812 22.261719 C 141.132812 23.804688 140.96875 25.015625 140.675781 25.890625 C 139.96875 27.933594 137.765625 28.265625 135.851562 28.308594 C 134.394531 28.351562 132.644531 28.351562 131.230469 28.308594 C 130.109375 28.265625 128.859375 28.015625 128.027344 27.183594 C 127.320312 26.433594 126.988281 25.140625 126.988281 23.265625 L 126.988281 12.675781 L 119.707031 12.675781 C 115.417969 12.675781 112.007812 13.589844 109.550781 15.46875 C 107.054688 17.300781 105.847656 19.886719 105.847656 23.140625 C 105.847656 25.058594 106.265625 26.765625 107.140625 28.183594 C 108.011719 29.644531 109.21875 30.769531 110.757812 31.5625 C 112.339844 32.351562 114.296875 32.769531 116.335938 32.769531 C 119.746094 32.769531 122.453125 31.6875 124.40625 29.558594 C 125.03125 30.601562 125.90625 31.394531 127.027344 31.9375 C 128.445312 32.5625 130.148438 32.6875 131.8125 32.6875 "/>
<path style=" stroke:none;fill-rule:nonzero;fill:rgb(19.215686%,18.039216%,32.156863%);fill-opacity:1;" d="M 114.753906 9.921875 C 115.585938 9.921875 116.25 9.632812 116.835938 9.046875 C 117.417969 8.464844 117.667969 7.753906 117.667969 7.003906 C 117.667969 6.210938 117.375 5.503906 116.835938 4.917969 C 116.25 4.335938 115.585938 4.085938 114.753906 4.085938 C 113.921875 4.085938 113.296875 4.378906 112.714844 4.917969 C 112.132812 5.503906 111.882812 6.171875 111.882812 7.003906 C 111.882812 7.839844 112.175781 8.464844 112.714844 9.046875 C 113.253906 9.632812 113.964844 9.921875 114.753906 9.921875 Z M 114.753906 9.921875 "/>
<path style=" stroke:none;fill-rule:nonzero;fill:rgb(19.215686%,18.039216%,32.156863%);fill-opacity:1;" d="M 122.617188 9.921875 C 123.449219 9.921875 124.15625 9.632812 124.738281 9.046875 C 125.324219 8.464844 125.613281 7.753906 125.613281 7.003906 C 125.613281 6.210938 125.324219 5.503906 124.738281 4.917969 C 124.15625 4.335938 123.449219 4.085938 122.617188 4.085938 C 121.785156 4.085938 121.160156 4.378906 120.578125 4.917969 C 119.996094 5.503906 119.707031 6.171875 119.707031 7.003906 C 119.707031 7.839844 119.996094 8.464844 120.578125 9.046875 C 121.160156 9.632812 121.828125 9.921875 122.617188 9.921875 Z M 122.617188 9.921875 "/>
<path style=" stroke:none;fill-rule:nonzero;fill:rgb(19.215686%,18.039216%,32.156863%);fill-opacity:1;" d="M 160.773438 9.839844 C 161.605469 9.839844 162.273438 9.546875 162.855469 8.964844 C 163.4375 8.378906 163.6875 7.671875 163.6875 6.921875 C 163.6875 6.128906 163.394531 5.460938 162.855469 4.878906 C 162.273438 4.292969 161.605469 4.003906 160.773438 4.003906 C 159.941406 4.003906 159.234375 4.292969 158.652344 4.878906 C 158.070312 5.460938 157.738281 6.171875 157.738281 6.921875 C 157.738281 7.714844 158.027344 8.378906 158.652344 8.964844 C 159.234375 9.546875 159.941406 9.839844 160.773438 9.839844 Z M 160.773438 9.839844 "/>
<path style=" stroke:none;fill-rule:nonzero;fill:rgb(19.215686%,18.039216%,32.156863%);fill-opacity:1;" d="M 296.128906 0.125 C 294.589844 0.125 293.425781 0.875 293.425781 2.5 L 293.425781 32.644531 L 298.710938 32.644531 L 298.710938 0.582031 C 297.917969 0.25 296.839844 0.125 296.128906 0.125 Z M 296.128906 0.125 "/>
<path style=" stroke:none;fill-rule:nonzero;fill:rgb(19.215686%,18.039216%,32.156863%);fill-opacity:1;" d="M 270.539062 9.921875 C 271.371094 9.921875 272.082031 9.632812 272.664062 9.046875 C 273.246094 8.464844 273.535156 7.753906 273.535156 7.003906 C 273.535156 6.210938 273.246094 5.503906 272.664062 4.917969 C 272.082031 4.335938 271.371094 4.085938 270.539062 4.085938 C 269.707031 4.085938 269.085938 4.378906 268.5 4.917969 C 267.917969 5.503906 267.667969 6.171875 267.667969 7.003906 C 267.667969 7.839844 267.960938 8.464844 268.5 9.046875 C 269.085938 9.632812 269.75 9.921875 270.539062 9.921875 Z M 270.539062 9.921875 "/>
<path style=" stroke:none;fill-rule:nonzero;fill:rgb(19.215686%,18.039216%,32.156863%);fill-opacity:1;" d="M 262.632812 9.921875 C 263.46875 9.921875 264.132812 9.632812 264.714844 9.046875 C 265.296875 8.464844 265.546875 7.753906 265.546875 7.003906 C 265.546875 6.210938 265.257812 5.503906 264.714844 4.917969 C 264.132812 4.335938 263.46875 4.085938 262.632812 4.085938 C 261.800781 4.085938 261.179688 4.378906 260.597656 4.917969 C 260.011719 5.503906 259.765625 6.171875 259.765625 7.003906 C 259.765625 7.839844 260.054688 8.464844 260.597656 9.046875 C 261.179688 9.632812 261.84375 9.921875 262.632812 9.921875 Z M 262.632812 9.921875 "/>
<path style=" stroke:none;fill-rule:nonzero;fill:rgb(19.215686%,18.039216%,32.156863%);fill-opacity:1;" d="M 289.929688 32.644531 L 289.929688 0.582031 C 289.679688 0.417969 289.140625 0.332031 288.683594 0.207031 C 288.226562 0.125 287.808594 0.0820312 287.390625 0.0820312 C 286.601562 0.0820312 285.9375 0.292969 285.4375 0.707031 C 284.9375 1.125 284.6875 1.710938 284.6875 2.5 L 284.6875 28.183594 L 269.582031 28.183594 L 269.582031 13.089844 C 269.167969 12.925781 268.75 12.757812 268.292969 12.632812 C 267.878906 12.550781 267.417969 12.507812 266.960938 12.507812 C 266.128906 12.507812 265.464844 12.714844 265.007812 13.132812 C 264.546875 13.550781 264.300781 14.175781 264.300781 15.007812 L 264.300781 28.140625 L 246.03125 28.140625 C 236.210938 28.140625 231.386719 22.429688 228.640625 18.96875 C 231.21875 16.800781 234.214844 16.59375 235.878906 16.71875 C 238.25 16.886719 240.414062 17.761719 241.828125 19.054688 C 240.914062 20.261719 239.042969 22.386719 236.878906 24.097656 C 238.25 24.847656 239.832031 25.558594 241.664062 25.890625 C 244.660156 23.097656 246.738281 20.09375 247.445312 18.929688 C 246.90625 18.09375 244.078125 12.757812 236.128906 12.214844 C 227.558594 11.632812 223.273438 17.84375 222.523438 18.71875 C 225.0625 21.972656 227.308594 24.808594 230.511719 27.351562 C 228.972656 27.808594 227.265625 28.101562 225.476562 28.101562 L 195.894531 28.101562 L 195.894531 0.5 C 195.644531 0.332031 195.269531 0.25 194.8125 0.125 C 194.351562 0.0429688 193.730469 0 193.3125 0 C 192.523438 0 191.855469 0.207031 191.355469 0.625 C 190.859375 1.042969 190.609375 1.625 190.609375 2.417969 L 190.609375 32.5625 L 225.476562 32.5625 C 229.015625 32.5625 232.300781 31.6875 235.171875 30.269531 C 238.417969 31.8125 242.039062 32.5625 245.992188 32.5625 L 289.929688 32.5625 Z M 289.929688 32.644531 "/>
<path style=" stroke:none;fill-rule:nonzero;fill:rgb(19.215686%,18.039216%,32.156863%);fill-opacity:1;" d="M 139.46875 41.359375 C 140.300781 41.359375 140.96875 41.066406 141.550781 40.484375 C 142.132812 39.898438 142.382812 39.191406 142.382812 38.441406 C 142.382812 37.648438 142.089844 36.9375 141.550781 36.355469 C 140.96875 35.773438 140.300781 35.523438 139.46875 35.523438 C 138.636719 35.523438 138.011719 35.8125 137.429688 36.355469 C 136.847656 36.9375 136.597656 37.605469 136.597656 38.441406 C 136.597656 39.273438 136.890625 39.898438 137.429688 40.484375 C 138.011719 41.066406 138.679688 41.359375 139.46875 41.359375 Z M 139.46875 41.359375 "/>
<path style=" stroke:none;fill-rule:nonzero;fill:rgb(19.215686%,18.039216%,32.156863%);fill-opacity:1;" d="M 147.375 41.359375 C 148.207031 41.359375 148.914062 41.066406 149.496094 40.484375 C 150.082031 39.898438 150.371094 39.191406 150.371094 38.441406 C 150.371094 37.648438 150.082031 36.9375 149.496094 36.355469 C 148.914062 35.773438 148.207031 35.523438 147.375 35.523438 C 146.542969 35.523438 145.917969 35.8125 145.335938 36.355469 C 144.753906 36.9375 144.503906 37.605469 144.503906 38.441406 C 144.503906 39.273438 144.796875 39.898438 145.335938 40.484375 C 145.878906 41.066406 146.585938 41.359375 147.375 41.359375 Z M 147.375 41.359375 "/>
<path style=" stroke:none;fill-rule:nonzero;fill:rgb(19.215686%,18.039216%,32.156863%);fill-opacity:1;" d="M 182.742188 28.183594 L 177.75 28.183594 C 176.542969 28.183594 171.59375 28.101562 171.59375 22.640625 C 171.59375 18.96875 173.839844 16.71875 177.042969 16.71875 C 180.746094 16.71875 182.785156 19.429688 182.785156 24.847656 L 182.785156 28.183594 Z M 187.988281 24.429688 C 187.988281 17.261719 184.742188 12.257812 177.460938 12.257812 C 171.71875 12.257812 166.183594 15.46875 166.183594 22.804688 C 166.183594 30.101562 172.300781 32.644531 177.835938 32.644531 L 182.742188 32.644531 L 182.742188 33.355469 C 182.742188 36.230469 180.953125 39.230469 176.835938 39.230469 C 174.503906 39.230469 172.925781 38.605469 169.59375 36.9375 C 167.765625 39.191406 168.886719 41.023438 170.636719 41.902344 C 172.757812 42.941406 175.128906 43.484375 177.5 43.527344 C 185.15625 43.652344 187.988281 39.066406 187.988281 31.394531 Z M 187.988281 24.429688 "/>
<path style=" stroke:none;fill-rule:nonzero;fill:rgb(19.215686%,18.039216%,32.156863%);fill-opacity:1;" d="M 121.660156 22.222656 C 121.660156 24.097656 121.203125 25.558594 120.246094 26.597656 C 119.289062 27.640625 118 28.183594 116.292969 28.183594 C 114.585938 28.183594 113.378906 27.726562 112.464844 26.765625 C 111.550781 25.847656 111.050781 24.597656 111.050781 23.015625 C 111.050781 21.054688 111.800781 19.554688 113.253906 18.554688 C 114.710938 17.511719 116.875 17.011719 119.707031 17.011719 L 121.660156 17.011719 Z M 131.8125 32.6875 C 132.480469 32.6875 133.394531 32.6875 134.019531 32.6875 C 136.308594 32.6875 138.679688 32.769531 140.882812 31.976562 C 142.089844 31.519531 143.007812 30.726562 143.671875 29.601562 C 144.753906 31.644531 146.585938 32.6875 149.207031 32.6875 L 163.394531 32.6875 L 163.394531 13.089844 C 163.144531 12.925781 162.605469 12.839844 162.148438 12.714844 C 161.691406 12.632812 161.273438 12.589844 160.855469 12.589844 C 160.066406 12.589844 159.402344 12.800781 158.902344 13.214844 C 158.402344 13.632812 158.152344 14.21875 158.152344 15.007812 L 158.152344 28.265625 L 152.617188 28.265625 C 150.496094 28.265625 147.707031 28.351562 146.835938 25.933594 C 146.503906 25.058594 146.378906 23.847656 146.378906 22.261719 L 146.378906 13.132812 C 146.128906 12.964844 145.585938 12.882812 145.128906 12.757812 C 144.671875 12.675781 144.253906 12.632812 143.839844 12.632812 C 143.046875 12.632812 142.382812 12.839844 141.882812 13.257812 C 141.382812 13.675781 141.132812 14.257812 141.132812 15.050781 L 141.132812 22.261719 C 141.132812 23.804688 140.96875 25.015625 140.675781 25.890625 C 139.96875 27.933594 137.765625 28.265625 135.851562 28.308594 C 134.394531 28.351562 132.644531 28.351562 131.230469 28.308594 C 130.109375 28.265625 128.859375 28.015625 128.027344 27.183594 C 127.320312 26.433594 126.988281 25.140625 126.988281 23.265625 L 126.988281 12.675781 L 119.707031 12.675781 C 115.417969 12.675781 112.007812 13.589844 109.550781 15.46875 C 107.054688 17.300781 105.847656 19.886719 105.847656 23.140625 C 105.847656 25.058594 106.265625 26.765625 107.140625 28.183594 C 108.011719 29.644531 109.21875 30.769531 110.757812 31.5625 C 112.339844 32.351562 114.296875 32.769531 116.335938 32.769531 C 119.746094 32.769531 122.453125 31.6875 124.40625 29.558594 C 125.03125 30.601562 125.90625 31.394531 127.027344 31.9375 C 128.445312 32.5625 130.148438 32.6875 131.8125 32.6875 "/>
<path style=" stroke:none;fill-rule:nonzero;fill:rgb(19.215686%,18.039216%,32.156863%);fill-opacity:1;" d="M 114.753906 9.921875 C 115.585938 9.921875 116.25 9.632812 116.835938 9.046875 C 117.417969 8.464844 117.667969 7.753906 117.667969 7.003906 C 117.667969 6.210938 117.375 5.503906 116.835938 4.917969 C 116.25 4.335938 115.585938 4.085938 114.753906 4.085938 C 113.921875 4.085938 113.296875 4.378906 112.714844 4.917969 C 112.132812 5.503906 111.882812 6.171875 111.882812 7.003906 C 111.882812 7.839844 112.175781 8.464844 112.714844 9.046875 C 113.253906 9.632812 113.964844 9.921875 114.753906 9.921875 Z M 114.753906 9.921875 "/>
<path style=" stroke:none;fill-rule:nonzero;fill:rgb(19.215686%,18.039216%,32.156863%);fill-opacity:1;" d="M 122.617188 9.921875 C 123.449219 9.921875 124.15625 9.632812 124.738281 9.046875 C 125.324219 8.464844 125.613281 7.753906 125.613281 7.003906 C 125.613281 6.210938 125.324219 5.503906 124.738281 4.917969 C 124.15625 4.335938 123.449219 4.085938 122.617188 4.085938 C 121.785156 4.085938 121.160156 4.378906 120.578125 4.917969 C 119.996094 5.503906 119.707031 6.171875 119.707031 7.003906 C 119.707031 7.839844 119.996094 8.464844 120.578125 9.046875 C 121.160156 9.632812 121.828125 9.921875 122.617188 9.921875 Z M 122.617188 9.921875 "/>
<path style=" stroke:none;fill-rule:nonzero;fill:rgb(19.215686%,18.039216%,32.156863%);fill-opacity:1;" d="M 160.773438 9.839844 C 161.605469 9.839844 162.273438 9.546875 162.855469 8.964844 C 163.4375 8.378906 163.6875 7.671875 163.6875 6.921875 C 163.6875 6.128906 163.394531 5.460938 162.855469 4.878906 C 162.273438 4.292969 161.605469 4.003906 160.773438 4.003906 C 159.941406 4.003906 159.234375 4.292969 158.652344 4.878906 C 158.070312 5.460938 157.738281 6.171875 157.738281 6.921875 C 157.738281 7.714844 158.027344 8.378906 158.652344 8.964844 C 159.234375 9.546875 159.941406 9.839844 160.773438 9.839844 Z M 160.773438 9.839844 "/>
<path style=" stroke:none;fill-rule:nonzero;fill:rgb(19.215686%,18.039216%,32.156863%);fill-opacity:1;" d="M 296.128906 0.125 C 294.589844 0.125 293.425781 0.875 293.425781 2.5 L 293.425781 32.644531 L 298.710938 32.644531 L 298.710938 0.582031 C 297.917969 0.25 296.839844 0.125 296.128906 0.125 Z M 296.128906 0.125 "/>
<path style=" stroke:none;fill-rule:nonzero;fill:rgb(19.215686%,18.039216%,32.156863%);fill-opacity:1;" d="M 270.539062 9.921875 C 271.371094 9.921875 272.082031 9.632812 272.664062 9.046875 C 273.246094 8.464844 273.535156 7.753906 273.535156 7.003906 C 273.535156 6.210938 273.246094 5.503906 272.664062 4.917969 C 272.082031 4.335938 271.371094 4.085938 270.539062 4.085938 C 269.707031 4.085938 269.085938 4.378906 268.5 4.917969 C 267.917969 5.503906 267.667969 6.171875 267.667969 7.003906 C 267.667969 7.839844 267.960938 8.464844 268.5 9.046875 C 269.085938 9.632812 269.75 9.921875 270.539062 9.921875 Z M 270.539062 9.921875 "/>
<path style=" stroke:none;fill-rule:nonzero;fill:rgb(19.215686%,18.039216%,32.156863%);fill-opacity:1;" d="M 262.632812 9.921875 C 263.46875 9.921875 264.132812 9.632812 264.714844 9.046875 C 265.296875 8.464844 265.546875 7.753906 265.546875 7.003906 C 265.546875 6.210938 265.257812 5.503906 264.714844 4.917969 C 264.132812 4.335938 263.46875 4.085938 262.632812 4.085938 C 261.800781 4.085938 261.179688 4.378906 260.597656 4.917969 C 260.011719 5.503906 259.765625 6.171875 259.765625 7.003906 C 259.765625 7.839844 260.054688 8.464844 260.597656 9.046875 C 261.179688 9.632812 261.84375 9.921875 262.632812 9.921875 Z M 262.632812 9.921875 "/>
<path style=" stroke:none;fill-rule:nonzero;fill:rgb(19.215686%,18.039216%,32.156863%);fill-opacity:1;" d="M 289.929688 32.644531 L 289.929688 0.582031 C 289.679688 0.417969 289.140625 0.332031 288.683594 0.207031 C 288.226562 0.125 287.808594 0.0820312 287.390625 0.0820312 C 286.601562 0.0820312 285.9375 0.292969 285.4375 0.707031 C 284.9375 1.125 284.6875 1.710938 284.6875 2.5 L 284.6875 28.183594 L 269.582031 28.183594 L 269.582031 13.089844 C 269.167969 12.925781 268.75 12.757812 268.292969 12.632812 C 267.878906 12.550781 267.417969 12.507812 266.960938 12.507812 C 266.128906 12.507812 265.464844 12.714844 265.007812 13.132812 C 264.546875 13.550781 264.300781 14.175781 264.300781 15.007812 L 264.300781 28.140625 L 246.03125 28.140625 C 236.210938 28.140625 231.386719 22.429688 228.640625 18.96875 C 231.21875 16.800781 234.214844 16.59375 235.878906 16.71875 C 238.25 16.886719 240.414062 17.761719 241.828125 19.054688 C 240.914062 20.261719 239.042969 22.386719 236.878906 24.097656 C 238.25 24.847656 239.832031 25.558594 241.664062 25.890625 C 244.660156 23.097656 246.738281 20.09375 247.445312 18.929688 C 246.90625 18.09375 244.078125 12.757812 236.128906 12.214844 C 227.558594 11.632812 223.273438 17.84375 222.523438 18.71875 C 225.0625 21.972656 227.308594 24.808594 230.511719 27.351562 C 228.972656 27.808594 227.265625 28.101562 225.476562 28.101562 L 195.894531 28.101562 L 195.894531 0.5 C 195.644531 0.332031 195.269531 0.25 194.8125 0.125 C 194.351562 0.0429688 193.730469 0 193.3125 0 C 192.523438 0 191.855469 0.207031 191.355469 0.625 C 190.859375 1.042969 190.609375 1.625 190.609375 2.417969 L 190.609375 32.5625 L 225.476562 32.5625 C 229.015625 32.5625 232.300781 31.6875 235.171875 30.269531 C 238.417969 31.8125 242.039062 32.5625 245.992188 32.5625 L 289.929688 32.5625 Z M 289.929688 32.644531 "/>
<path style=" stroke:none;fill-rule:nonzero;fill:rgb(19.215686%,18.039216%,32.156863%);fill-opacity:1;" d="M 139.46875 41.359375 C 140.300781 41.359375 140.96875 41.066406 141.550781 40.484375 C 142.132812 39.898438 142.382812 39.191406 142.382812 38.441406 C 142.382812 37.648438 142.089844 36.9375 141.550781 36.355469 C 140.96875 35.773438 140.300781 35.523438 139.46875 35.523438 C 138.636719 35.523438 138.011719 35.8125 137.429688 36.355469 C 136.847656 36.9375 136.597656 37.605469 136.597656 38.441406 C 136.597656 39.273438 136.890625 39.898438 137.429688 40.484375 C 138.011719 41.066406 138.679688 41.359375 139.46875 41.359375 Z M 139.46875 41.359375 "/>
<path style=" stroke:none;fill-rule:nonzero;fill:rgb(19.215686%,18.039216%,32.156863%);fill-opacity:1;" d="M 147.375 41.359375 C 148.207031 41.359375 148.914062 41.066406 149.496094 40.484375 C 150.082031 39.898438 150.371094 39.191406 150.371094 38.441406 C 150.371094 37.648438 150.082031 36.9375 149.496094 36.355469 C 148.914062 35.773438 148.207031 35.523438 147.375 35.523438 C 146.542969 35.523438 145.917969 35.8125 145.335938 36.355469 C 144.753906 36.9375 144.503906 37.605469 144.503906 38.441406 C 144.503906 39.273438 144.796875 39.898438 145.335938 40.484375 C 145.878906 41.066406 146.585938 41.359375 147.375 41.359375 Z M 147.375 41.359375 "/>
<path style=" stroke:none;fill-rule:nonzero;fill:rgb(19.215686%,18.039216%,32.156863%);fill-opacity:1;" d="M 124.699219 71.835938 C 124.367188 72.085938 123.867188 72.460938 123.074219 72.753906 C 122.285156 73.042969 121.453125 73.167969 120.578125 73.167969 C 120.039062 73.167969 119.496094 73.128906 118.996094 73.003906 C 118.5 72.878906 118.039062 72.667969 117.667969 72.335938 C 117.292969 72.042969 116.960938 71.625 116.75 71.125 C 116.542969 70.625 116.417969 69.960938 116.417969 69.167969 L 116.417969 58.828125 L 125.28125 58.828125 C 125.363281 58.660156 125.488281 58.328125 125.65625 57.867188 C 125.820312 57.410156 125.90625 56.953125 125.90625 56.410156 C 125.90625 55.617188 125.695312 54.992188 125.28125 54.574219 C 124.863281 54.15625 124.15625 53.949219 123.117188 53.949219 L 116.417969 53.949219 L 116.417969 47.863281 C 116.25 47.820312 115.960938 47.695312 115.460938 47.570312 C 114.960938 47.445312 114.460938 47.363281 113.921875 47.363281 C 113.046875 47.363281 112.382812 47.570312 111.882812 47.945312 C 111.382812 48.320312 111.132812 48.945312 111.132812 49.820312 L 111.132812 53.949219 L 108.472656 53.949219 C 107.472656 53.949219 106.722656 54.15625 106.308594 54.574219 C 105.890625 54.992188 105.683594 55.617188 105.683594 56.410156 C 105.683594 56.953125 105.765625 57.410156 105.933594 57.867188 C 106.097656 58.328125 106.222656 58.617188 106.308594 58.828125 L 111.132812 58.828125 L 111.132812 70.210938 C 111.132812 72.503906 111.839844 74.335938 113.214844 75.753906 C 114.585938 77.171875 116.667969 77.878906 119.371094 77.878906 C 120.328125 77.878906 121.203125 77.796875 121.992188 77.628906 C 122.785156 77.464844 123.535156 77.253906 124.15625 77.003906 C 124.824219 76.753906 125.363281 76.503906 125.78125 76.214844 C 126.238281 75.921875 126.570312 75.710938 126.820312 75.503906 C 126.820312 75.503906 126.613281 74.546875 126.03125 73.585938 C 125.488281 72.585938 124.699219 71.835938 124.699219 71.835938 "/>
<path style=" stroke:none;fill-rule:nonzero;fill:rgb(19.215686%,18.039216%,32.156863%);fill-opacity:1;" d="M 244.992188 53.949219 C 244.078125 53.949219 243.410156 54.15625 242.910156 54.53125 C 242.414062 54.910156 242.164062 55.535156 242.164062 56.410156 L 242.164062 77.214844 L 247.445312 77.214844 L 247.445312 54.449219 C 247.28125 54.40625 246.988281 54.28125 246.53125 54.15625 C 246.03125 54.03125 245.53125 53.949219 244.992188 53.949219 "/>
<path style=" stroke:none;fill-rule:nonzero;fill:rgb(19.215686%,18.039216%,32.156863%);fill-opacity:1;" d="M 244.785156 43.527344 C 243.867188 43.527344 243.121094 43.816406 242.496094 44.445312 C 241.871094 45.070312 241.582031 45.820312 241.582031 46.695312 C 241.582031 47.613281 241.871094 48.363281 242.496094 48.945312 C 243.121094 49.570312 243.867188 49.863281 244.785156 49.863281 C 245.65625 49.863281 246.449219 49.570312 247.03125 48.945312 C 247.65625 48.320312 247.945312 47.570312 247.945312 46.695312 C 247.945312 45.777344 247.65625 45.027344 247.03125 44.445312 C 246.449219 43.816406 245.699219 43.527344 244.785156 43.527344 Z M 244.785156 43.527344 "/>
<path style=" stroke:none;fill-rule:nonzero;fill:rgb(19.215686%,18.039216%,32.156863%);fill-opacity:1;" d="M 293.46875 73.460938 C 292.300781 73.585938 289.304688 73.710938 289.015625 73.710938 C 287.390625 73.753906 285.644531 73.667969 284.0625 73.085938 C 282.691406 72.585938 281.441406 71.460938 281.152344 70 C 281.109375 69.792969 281.109375 69.585938 281.109375 69.332031 C 281.152344 67.875 282.109375 66.457031 283.398438 65.789062 C 284.855469 64.996094 286.808594 65.121094 288.433594 65.207031 C 289.929688 65.289062 291.886719 65.5 293.46875 65.664062 C 293.46875 66.289062 293.46875 66.789062 293.46875 66.789062 Z M 295.257812 55.535156 C 294.175781 54.785156 292.886719 54.199219 291.386719 53.824219 C 289.890625 53.492188 288.226562 53.28125 286.433594 53.28125 C 284.9375 53.28125 283.6875 53.367188 282.691406 53.574219 C 281.691406 53.742188 280.902344 54.03125 280.320312 54.324219 C 279.738281 54.660156 279.320312 55.035156 279.070312 55.449219 C 278.820312 55.867188 278.738281 56.285156 278.738281 56.742188 C 278.738281 57.367188 278.902344 57.867188 279.238281 58.328125 C 279.570312 58.742188 279.820312 59.035156 279.984375 59.203125 C 280.320312 58.910156 281.027344 58.578125 282.109375 58.203125 C 283.191406 57.785156 284.5625 57.617188 286.351562 57.617188 C 287.390625 57.617188 288.347656 57.703125 289.222656 57.867188 C 290.097656 58.035156 290.804688 58.285156 291.429688 58.703125 C 292.054688 59.121094 292.511719 59.660156 292.886719 60.371094 C 293.050781 60.660156 293.132812 61.039062 293.21875 61.414062 C 290.511719 61.078125 287.351562 60.828125 285.519531 60.996094 C 283.605469 61.164062 281.609375 61.539062 279.984375 62.578125 C 276.449219 64.832031 275.242188 69.585938 277.28125 73.253906 C 278.28125 75.003906 280.027344 76.214844 281.941406 76.921875 C 283.855469 77.589844 285.894531 77.796875 287.890625 77.878906 C 290.972656 78.003906 294.132812 77.796875 297.210938 77.421875 C 297.878906 77.339844 298.378906 77.296875 298.667969 77.214844 L 298.667969 63.246094 C 298.667969 61.453125 298.378906 59.910156 297.753906 58.660156 C 297.171875 57.328125 296.339844 56.324219 295.257812 55.535156 "/>
<path style=" stroke:none;fill-rule:nonzero;fill:rgb(19.215686%,18.039216%,32.156863%);fill-opacity:1;" d="M 144.960938 73.460938 C 143.796875 73.585938 140.800781 73.710938 140.511719 73.710938 C 138.886719 73.753906 137.140625 73.667969 135.558594 73.085938 C 134.183594 72.585938 132.9375 71.460938 132.644531 70 C 132.605469 69.792969 132.605469 69.585938 132.605469 69.332031 C 132.644531 67.875 133.601562 66.457031 134.894531 65.789062 C 136.347656 64.996094 138.304688 65.121094 139.925781 65.207031 C 141.425781 65.289062 143.382812 65.5 144.960938 65.664062 C 144.960938 66.289062 144.960938 66.789062 144.960938 66.789062 Z M 186.074219 53.90625 C 185.242188 53.824219 184.367188 54.074219 183.785156 54.660156 C 183.367188 55.074219 183.160156 55.660156 182.953125 56.242188 C 181.289062 60.910156 179.664062 65.582031 178 70.210938 C 176.253906 65.207031 174.546875 60.246094 172.800781 55.242188 C 172.714844 54.949219 172.589844 54.660156 172.382812 54.449219 C 172.132812 54.199219 171.757812 54.15625 171.425781 54.074219 C 170.136719 53.867188 168.636719 53.699219 167.722656 54.617188 C 167.308594 55.035156 167.097656 55.574219 166.890625 56.117188 C 165.269531 60.578125 163.644531 65.039062 162.105469 69.5 C 161.316406 67.417969 161.398438 67.457031 160.566406 65.375 C 160.484375 65.121094 160.359375 64.871094 160.148438 64.746094 C 159.984375 64.621094 159.609375 64.496094 159.402344 64.457031 C 156.988281 63.789062 152.992188 62.621094 150.082031 61.914062 C 149.957031 60.660156 149.707031 59.535156 149.25 58.578125 C 148.664062 57.328125 147.792969 56.285156 146.710938 55.535156 C 145.628906 54.785156 144.339844 54.199219 142.839844 53.824219 C 141.34375 53.492188 139.679688 53.28125 137.890625 53.28125 C 136.390625 53.28125 135.140625 53.367188 134.144531 53.574219 C 133.144531 53.742188 132.355469 54.03125 131.773438 54.324219 C 131.191406 54.660156 130.773438 55.035156 130.566406 55.449219 C 130.316406 55.867188 130.234375 56.285156 130.234375 56.742188 C 130.234375 57.367188 130.398438 57.867188 130.730469 58.328125 C 131.066406 58.742188 131.316406 59.035156 131.480469 59.203125 C 131.8125 58.910156 132.519531 58.578125 133.601562 58.203125 C 134.683594 57.785156 136.058594 57.617188 137.847656 57.617188 C 138.886719 57.617188 139.84375 57.703125 140.71875 57.867188 C 141.59375 58.035156 142.300781 58.285156 142.921875 58.703125 C 143.546875 59.121094 144.003906 59.660156 144.378906 60.371094 C 144.546875 60.660156 144.628906 61.039062 144.710938 61.414062 C 142.007812 61.078125 138.847656 60.828125 137.015625 60.996094 C 135.058594 61.164062 133.105469 61.539062 131.480469 62.578125 C 127.945312 64.832031 126.738281 69.585938 128.777344 73.253906 C 129.773438 75.003906 131.523438 76.214844 133.4375 76.921875 C 135.351562 77.589844 137.390625 77.796875 139.386719 77.878906 C 142.507812 78.003906 145.628906 77.796875 148.707031 77.421875 C 149.375 77.339844 149.871094 77.296875 150.164062 77.214844 L 150.164062 66.625 C 152.703125 67.207031 155.738281 68.042969 155.824219 68.125 C 156.488281 68.75 159.316406 77.296875 159.359375 77.296875 C 161.191406 77.296875 162.980469 77.296875 164.808594 77.296875 C 166.558594 72.042969 168.265625 66.789062 169.84375 61.496094 C 171.425781 66.789062 173.175781 72.042969 174.964844 77.296875 C 176.792969 77.296875 178.625 77.296875 180.457031 77.296875 C 183.117188 69.792969 185.738281 62.246094 188.402344 54.742188 C 187.652344 54.28125 186.863281 53.992188 186.074219 53.90625 "/>
<path style=" stroke:none;fill-rule:nonzero;fill:rgb(19.215686%,18.039216%,32.156863%);fill-opacity:1;" d="M 154.53125 53.949219 C 153.660156 53.949219 152.992188 54.199219 152.535156 54.699219 C 152.121094 55.199219 152.035156 55.535156 152.035156 56.160156 C 152.035156 56.285156 152.660156 58.328125 153.574219 60.910156 L 159.609375 62.621094 C 158.484375 59.410156 157.070312 55.035156 156.90625 54.40625 C 156.78125 54.324219 156.53125 54.242188 156.15625 54.117188 C 155.738281 53.992188 155.199219 53.949219 154.53125 53.949219 Z M 154.53125 53.949219 "/>
<path style=" stroke:none;fill-rule:nonzero;fill:rgb(19.215686%,18.039216%,32.156863%);fill-opacity:1;" d="M 210.664062 53.90625 C 209.789062 53.90625 209.125 54.117188 208.625 54.492188 C 208.167969 54.824219 207.917969 55.410156 207.875 56.117188 L 207.875 67.289062 C 207.875 69.375 207.378906 71 206.378906 72.085938 C 205.378906 73.167969 203.882812 73.710938 201.882812 73.710938 C 199.886719 73.710938 198.429688 73.167969 197.390625 72.085938 C 196.390625 71 195.851562 69.375 195.851562 67.289062 L 195.851562 54.40625 C 195.683594 54.367188 195.394531 54.242188 194.894531 54.117188 C 194.4375 53.992188 193.894531 53.90625 193.355469 53.90625 C 192.480469 53.90625 191.816406 54.117188 191.316406 54.492188 C 190.816406 54.867188 190.566406 55.492188 190.566406 56.367188 L 190.566406 68.667969 C 190.566406 70.210938 190.859375 71.585938 191.398438 72.792969 C 191.941406 74.003906 192.730469 75.046875 193.730469 75.878906 C 194.726562 76.714844 195.933594 77.378906 197.308594 77.839844 C 198.679688 78.296875 200.21875 78.507812 201.84375 78.507812 C 203.464844 78.507812 204.964844 78.296875 206.335938 77.839844 C 207.710938 77.378906 208.875 76.753906 209.914062 75.878906 C 210.914062 75.046875 211.703125 74.003906 212.285156 72.792969 C 212.871094 71.585938 213.160156 70.210938 213.160156 68.667969 L 213.160156 54.449219 C 212.996094 54.40625 212.703125 54.28125 212.203125 54.15625 C 211.746094 53.992188 211.246094 53.90625 210.664062 53.90625 Z M 210.664062 53.90625 "/>
<path style=" stroke:none;fill-rule:nonzero;fill:rgb(19.215686%,18.039216%,32.156863%);fill-opacity:1;" d="M 235.753906 55.867188 C 234.757812 55.035156 233.550781 54.367188 232.175781 53.90625 C 230.804688 53.449219 229.304688 53.242188 227.683594 53.242188 C 226.058594 53.242188 224.519531 53.449219 223.148438 53.90625 C 221.773438 54.367188 220.566406 54.992188 219.570312 55.867188 C 218.570312 56.703125 217.78125 57.742188 217.238281 58.953125 C 216.699219 60.160156 216.40625 61.539062 216.40625 63.078125 L 216.40625 75.378906 C 216.40625 76.214844 216.65625 76.839844 217.15625 77.253906 C 217.65625 77.628906 218.320312 77.839844 219.195312 77.839844 C 219.734375 77.839844 220.277344 77.753906 220.734375 77.628906 C 221.191406 77.503906 221.523438 77.378906 221.691406 77.339844 L 221.691406 64.457031 C 221.691406 62.371094 222.191406 60.746094 223.230469 59.660156 C 224.230469 58.578125 225.726562 58.035156 227.722656 58.035156 C 229.679688 58.035156 231.21875 58.578125 232.21875 59.660156 C 233.214844 60.746094 233.714844 62.371094 233.714844 64.457031 L 233.714844 75.628906 C 233.757812 76.378906 234.007812 76.921875 234.464844 77.253906 C 234.964844 77.628906 235.628906 77.839844 236.503906 77.839844 C 237.042969 77.839844 237.585938 77.753906 238.042969 77.628906 C 238.5 77.503906 238.835938 77.378906 239 77.339844 L 239 63.121094 C 239 61.578125 238.710938 60.203125 238.125 58.996094 C 237.503906 57.785156 236.710938 56.742188 235.753906 55.867188 "/>
<path style=" stroke:none;fill-rule:nonzero;fill:rgb(19.215686%,18.039216%,32.156863%);fill-opacity:1;" d="M 271.246094 53.949219 C 270.375 53.949219 269.707031 54.15625 269.210938 54.53125 C 268.710938 54.949219 268.460938 55.535156 268.460938 56.367188 L 268.460938 66.289062 C 268.460938 68.417969 267.917969 70.042969 266.835938 71.125 C 265.753906 72.210938 264.300781 72.753906 262.386719 72.753906 C 260.347656 72.753906 258.847656 72.210938 257.890625 71.125 C 256.933594 70.042969 256.433594 68.582031 256.433594 66.789062 L 256.433594 54.40625 C 256.269531 54.367188 255.976562 54.242188 255.476562 54.117188 C 254.980469 53.992188 254.480469 53.90625 253.9375 53.90625 C 253.066406 53.90625 252.398438 54.117188 251.898438 54.492188 C 251.398438 54.910156 251.152344 55.492188 251.152344 56.324219 L 251.152344 67.875 C 251.152344 69.375 251.398438 70.75 251.898438 71.917969 C 252.398438 73.085938 253.105469 74.085938 254.023438 74.878906 C 254.894531 75.671875 255.976562 76.253906 257.265625 76.671875 C 258.515625 77.089844 259.886719 77.296875 261.386719 77.296875 C 262.96875 77.296875 264.382812 77.046875 265.714844 76.503906 C 267.003906 75.964844 268.003906 75.253906 268.585938 74.335938 C 268.585938 80.882812 267.710938 84.71875 260.84375 84.71875 C 257.058594 84.71875 254.394531 83.882812 253.355469 83.425781 C 253.1875 83.800781 252.398438 85.34375 252.816406 86.679688 C 253.105469 87.554688 253.898438 87.96875 254.730469 88.21875 C 257.140625 88.929688 262.050781 89.261719 265.171875 88.761719 C 271.664062 87.71875 273.703125 83.257812 273.703125 74.796875 L 273.703125 54.492188 C 273.535156 54.449219 273.246094 54.324219 272.746094 54.199219 C 272.328125 53.992188 271.789062 53.949219 271.246094 53.949219 "/>
<path style=" stroke:none;fill-rule:nonzero;fill:rgb(19.215686%,18.039216%,32.156863%);fill-opacity:1;" d="M 124.699219 71.835938 C 124.367188 72.085938 123.867188 72.460938 123.074219 72.753906 C 122.285156 73.042969 121.453125 73.167969 120.578125 73.167969 C 120.039062 73.167969 119.496094 73.128906 118.996094 73.003906 C 118.5 72.878906 118.039062 72.667969 117.667969 72.335938 C 117.292969 72.042969 116.960938 71.625 116.75 71.125 C 116.542969 70.625 116.417969 69.960938 116.417969 69.167969 L 116.417969 58.828125 L 125.28125 58.828125 C 125.363281 58.660156 125.488281 58.328125 125.65625 57.867188 C 125.820312 57.410156 125.90625 56.953125 125.90625 56.410156 C 125.90625 55.617188 125.695312 54.992188 125.28125 54.574219 C 124.863281 54.15625 124.15625 53.949219 123.117188 53.949219 L 116.417969 53.949219 L 116.417969 47.863281 C 116.25 47.820312 115.960938 47.695312 115.460938 47.570312 C 114.960938 47.445312 114.460938 47.363281 113.921875 47.363281 C 113.046875 47.363281 112.382812 47.570312 111.882812 47.945312 C 111.382812 48.320312 111.132812 48.945312 111.132812 49.820312 L 111.132812 53.949219 L 108.472656 53.949219 C 107.472656 53.949219 106.722656 54.15625 106.308594 54.574219 C 105.890625 54.992188 105.683594 55.617188 105.683594 56.410156 C 105.683594 56.953125 105.765625 57.410156 105.933594 57.867188 C 106.097656 58.328125 106.222656 58.617188 106.308594 58.828125 L 111.132812 58.828125 L 111.132812 70.210938 C 111.132812 72.503906 111.839844 74.335938 113.214844 75.753906 C 114.585938 77.171875 116.667969 77.878906 119.371094 77.878906 C 120.328125 77.878906 121.203125 77.796875 121.992188 77.628906 C 122.785156 77.464844 123.535156 77.253906 124.15625 77.003906 C 124.824219 76.753906 125.363281 76.503906 125.78125 76.214844 C 126.238281 75.921875 126.570312 75.710938 126.820312 75.503906 C 126.820312 75.503906 126.613281 74.546875 126.03125 73.585938 C 125.488281 72.585938 124.699219 71.835938 124.699219 71.835938 "/>
<path style=" stroke:none;fill-rule:nonzero;fill:rgb(19.215686%,18.039216%,32.156863%);fill-opacity:1;" d="M 244.992188 53.949219 C 244.078125 53.949219 243.410156 54.15625 242.910156 54.53125 C 242.414062 54.910156 242.164062 55.535156 242.164062 56.410156 L 242.164062 77.214844 L 247.445312 77.214844 L 247.445312 54.449219 C 247.28125 54.40625 246.988281 54.28125 246.53125 54.15625 C 246.03125 54.03125 245.53125 53.949219 244.992188 53.949219 "/>
<path style=" stroke:none;fill-rule:nonzero;fill:rgb(19.215686%,18.039216%,32.156863%);fill-opacity:1;" d="M 244.785156 43.527344 C 243.867188 43.527344 243.121094 43.816406 242.496094 44.445312 C 241.871094 45.070312 241.582031 45.820312 241.582031 46.695312 C 241.582031 47.613281 241.871094 48.363281 242.496094 48.945312 C 243.121094 49.570312 243.867188 49.863281 244.785156 49.863281 C 245.65625 49.863281 246.449219 49.570312 247.03125 48.945312 C 247.65625 48.320312 247.945312 47.570312 247.945312 46.695312 C 247.945312 45.777344 247.65625 45.027344 247.03125 44.445312 C 246.449219 43.816406 245.699219 43.527344 244.785156 43.527344 Z M 244.785156 43.527344 "/>
<path style=" stroke:none;fill-rule:nonzero;fill:rgb(19.215686%,18.039216%,32.156863%);fill-opacity:1;" d="M 293.46875 73.460938 C 292.300781 73.585938 289.304688 73.710938 289.015625 73.710938 C 287.390625 73.753906 285.644531 73.667969 284.0625 73.085938 C 282.691406 72.585938 281.441406 71.460938 281.152344 70 C 281.109375 69.792969 281.109375 69.585938 281.109375 69.332031 C 281.152344 67.875 282.109375 66.457031 283.398438 65.789062 C 284.855469 64.996094 286.808594 65.121094 288.433594 65.207031 C 289.929688 65.289062 291.886719 65.5 293.46875 65.664062 C 293.46875 66.289062 293.46875 66.789062 293.46875 66.789062 Z M 295.257812 55.535156 C 294.175781 54.785156 292.886719 54.199219 291.386719 53.824219 C 289.890625 53.492188 288.226562 53.28125 286.433594 53.28125 C 284.9375 53.28125 283.6875 53.367188 282.691406 53.574219 C 281.691406 53.742188 280.902344 54.03125 280.320312 54.324219 C 279.738281 54.660156 279.320312 55.035156 279.070312 55.449219 C 278.820312 55.867188 278.738281 56.285156 278.738281 56.742188 C 278.738281 57.367188 278.902344 57.867188 279.238281 58.328125 C 279.570312 58.742188 279.820312 59.035156 279.984375 59.203125 C 280.320312 58.910156 281.027344 58.578125 282.109375 58.203125 C 283.191406 57.785156 284.5625 57.617188 286.351562 57.617188 C 287.390625 57.617188 288.347656 57.703125 289.222656 57.867188 C 290.097656 58.035156 290.804688 58.285156 291.429688 58.703125 C 292.054688 59.121094 292.511719 59.660156 292.886719 60.371094 C 293.050781 60.660156 293.132812 61.039062 293.21875 61.414062 C 290.511719 61.078125 287.351562 60.828125 285.519531 60.996094 C 283.605469 61.164062 281.609375 61.539062 279.984375 62.578125 C 276.449219 64.832031 275.242188 69.585938 277.28125 73.253906 C 278.28125 75.003906 280.027344 76.214844 281.941406 76.921875 C 283.855469 77.589844 285.894531 77.796875 287.890625 77.878906 C 290.972656 78.003906 294.132812 77.796875 297.210938 77.421875 C 297.878906 77.339844 298.378906 77.296875 298.667969 77.214844 L 298.667969 63.246094 C 298.667969 61.453125 298.378906 59.910156 297.753906 58.660156 C 297.171875 57.328125 296.339844 56.324219 295.257812 55.535156 "/>
<path style=" stroke:none;fill-rule:nonzero;fill:rgb(19.215686%,18.039216%,32.156863%);fill-opacity:1;" d="M 144.960938 73.460938 C 143.796875 73.585938 140.800781 73.710938 140.511719 73.710938 C 138.886719 73.753906 137.140625 73.667969 135.558594 73.085938 C 134.183594 72.585938 132.9375 71.460938 132.644531 70 C 132.605469 69.792969 132.605469 69.585938 132.605469 69.332031 C 132.644531 67.875 133.601562 66.457031 134.894531 65.789062 C 136.347656 64.996094 138.304688 65.121094 139.925781 65.207031 C 141.425781 65.289062 143.382812 65.5 144.960938 65.664062 C 144.960938 66.289062 144.960938 66.789062 144.960938 66.789062 Z M 186.074219 53.90625 C 185.242188 53.824219 184.367188 54.074219 183.785156 54.660156 C 183.367188 55.074219 183.160156 55.660156 182.953125 56.242188 C 181.289062 60.910156 179.664062 65.582031 178 70.210938 C 176.253906 65.207031 174.546875 60.246094 172.800781 55.242188 C 172.714844 54.949219 172.589844 54.660156 172.382812 54.449219 C 172.132812 54.199219 171.757812 54.15625 171.425781 54.074219 C 170.136719 53.867188 168.636719 53.699219 167.722656 54.617188 C 167.308594 55.035156 167.097656 55.574219 166.890625 56.117188 C 165.269531 60.578125 163.644531 65.039062 162.105469 69.5 C 161.316406 67.417969 161.398438 67.457031 160.566406 65.375 C 160.484375 65.121094 160.359375 64.871094 160.148438 64.746094 C 159.984375 64.621094 159.609375 64.496094 159.402344 64.457031 C 156.988281 63.789062 152.992188 62.621094 150.082031 61.914062 C 149.957031 60.660156 149.707031 59.535156 149.25 58.578125 C 148.664062 57.328125 147.792969 56.285156 146.710938 55.535156 C 145.628906 54.785156 144.339844 54.199219 142.839844 53.824219 C 141.34375 53.492188 139.679688 53.28125 137.890625 53.28125 C 136.390625 53.28125 135.140625 53.367188 134.144531 53.574219 C 133.144531 53.742188 132.355469 54.03125 131.773438 54.324219 C 131.191406 54.660156 130.773438 55.035156 130.566406 55.449219 C 130.316406 55.867188 130.234375 56.285156 130.234375 56.742188 C 130.234375 57.367188 130.398438 57.867188 130.730469 58.328125 C 131.066406 58.742188 131.316406 59.035156 131.480469 59.203125 C 131.8125 58.910156 132.519531 58.578125 133.601562 58.203125 C 134.683594 57.785156 136.058594 57.617188 137.847656 57.617188 C 138.886719 57.617188 139.84375 57.703125 140.71875 57.867188 C 141.59375 58.035156 142.300781 58.285156 142.921875 58.703125 C 143.546875 59.121094 144.003906 59.660156 144.378906 60.371094 C 144.546875 60.660156 144.628906 61.039062 144.710938 61.414062 C 142.007812 61.078125 138.847656 60.828125 137.015625 60.996094 C 135.058594 61.164062 133.105469 61.539062 131.480469 62.578125 C 127.945312 64.832031 126.738281 69.585938 128.777344 73.253906 C 129.773438 75.003906 131.523438 76.214844 133.4375 76.921875 C 135.351562 77.589844 137.390625 77.796875 139.386719 77.878906 C 142.507812 78.003906 145.628906 77.796875 148.707031 77.421875 C 149.375 77.339844 149.871094 77.296875 150.164062 77.214844 L 150.164062 66.625 C 152.703125 67.207031 155.738281 68.042969 155.824219 68.125 C 156.488281 68.75 159.316406 77.296875 159.359375 77.296875 C 161.191406 77.296875 162.980469 77.296875 164.808594 77.296875 C 166.558594 72.042969 168.265625 66.789062 169.84375 61.496094 C 171.425781 66.789062 173.175781 72.042969 174.964844 77.296875 C 176.792969 77.296875 178.625 77.296875 180.457031 77.296875 C 183.117188 69.792969 185.738281 62.246094 188.402344 54.742188 C 187.652344 54.28125 186.863281 53.992188 186.074219 53.90625 "/>
<path style=" stroke:none;fill-rule:nonzero;fill:rgb(19.215686%,18.039216%,32.156863%);fill-opacity:1;" d="M 154.53125 53.949219 C 153.660156 53.949219 152.992188 54.199219 152.535156 54.699219 C 152.121094 55.199219 152.035156 55.535156 152.035156 56.160156 C 152.035156 56.285156 152.660156 58.328125 153.574219 60.910156 L 159.609375 62.621094 C 158.484375 59.410156 157.070312 55.035156 156.90625 54.40625 C 156.78125 54.324219 156.53125 54.242188 156.15625 54.117188 C 155.738281 53.992188 155.199219 53.949219 154.53125 53.949219 Z M 154.53125 53.949219 "/>
<path style=" stroke:none;fill-rule:nonzero;fill:rgb(19.215686%,18.039216%,32.156863%);fill-opacity:1;" d="M 210.664062 53.90625 C 209.789062 53.90625 209.125 54.117188 208.625 54.492188 C 208.167969 54.824219 207.917969 55.410156 207.875 56.117188 L 207.875 67.289062 C 207.875 69.375 207.378906 71 206.378906 72.085938 C 205.378906 73.167969 203.882812 73.710938 201.882812 73.710938 C 199.886719 73.710938 198.429688 73.167969 197.390625 72.085938 C 196.390625 71 195.851562 69.375 195.851562 67.289062 L 195.851562 54.40625 C 195.683594 54.367188 195.394531 54.242188 194.894531 54.117188 C 194.4375 53.992188 193.894531 53.90625 193.355469 53.90625 C 192.480469 53.90625 191.816406 54.117188 191.316406 54.492188 C 190.816406 54.867188 190.566406 55.492188 190.566406 56.367188 L 190.566406 68.667969 C 190.566406 70.210938 190.859375 71.585938 191.398438 72.792969 C 191.941406 74.003906 192.730469 75.046875 193.730469 75.878906 C 194.726562 76.714844 195.933594 77.378906 197.308594 77.839844 C 198.679688 78.296875 200.21875 78.507812 201.84375 78.507812 C 203.464844 78.507812 204.964844 78.296875 206.335938 77.839844 C 207.710938 77.378906 208.875 76.753906 209.914062 75.878906 C 210.914062 75.046875 211.703125 74.003906 212.285156 72.792969 C 212.871094 71.585938 213.160156 70.210938 213.160156 68.667969 L 213.160156 54.449219 C 212.996094 54.40625 212.703125 54.28125 212.203125 54.15625 C 211.746094 53.992188 211.246094 53.90625 210.664062 53.90625 Z M 210.664062 53.90625 "/>
<path style=" stroke:none;fill-rule:nonzero;fill:rgb(19.215686%,18.039216%,32.156863%);fill-opacity:1;" d="M 235.753906 55.867188 C 234.757812 55.035156 233.550781 54.367188 232.175781 53.90625 C 230.804688 53.449219 229.304688 53.242188 227.683594 53.242188 C 226.058594 53.242188 224.519531 53.449219 223.148438 53.90625 C 221.773438 54.367188 220.566406 54.992188 219.570312 55.867188 C 218.570312 56.703125 217.78125 57.742188 217.238281 58.953125 C 216.699219 60.160156 216.40625 61.539062 216.40625 63.078125 L 216.40625 75.378906 C 216.40625 76.214844 216.65625 76.839844 217.15625 77.253906 C 217.65625 77.628906 218.320312 77.839844 219.195312 77.839844 C 219.734375 77.839844 220.277344 77.753906 220.734375 77.628906 C 221.191406 77.503906 221.523438 77.378906 221.691406 77.339844 L 221.691406 64.457031 C 221.691406 62.371094 222.191406 60.746094 223.230469 59.660156 C 224.230469 58.578125 225.726562 58.035156 227.722656 58.035156 C 229.679688 58.035156 231.21875 58.578125 232.21875 59.660156 C 233.214844 60.746094 233.714844 62.371094 233.714844 64.457031 L 233.714844 75.628906 C 233.757812 76.378906 234.007812 76.921875 234.464844 77.253906 C 234.964844 77.628906 235.628906 77.839844 236.503906 77.839844 C 237.042969 77.839844 237.585938 77.753906 238.042969 77.628906 C 238.5 77.503906 238.835938 77.378906 239 77.339844 L 239 63.121094 C 239 61.578125 238.710938 60.203125 238.125 58.996094 C 237.503906 57.785156 236.710938 56.742188 235.753906 55.867188 "/>
<path style=" stroke:none;fill-rule:nonzero;fill:rgb(19.215686%,18.039216%,32.156863%);fill-opacity:1;" d="M 271.246094 53.949219 C 270.375 53.949219 269.707031 54.15625 269.210938 54.53125 C 268.710938 54.949219 268.460938 55.535156 268.460938 56.367188 L 268.460938 66.289062 C 268.460938 68.417969 267.917969 70.042969 266.835938 71.125 C 265.753906 72.210938 264.300781 72.753906 262.386719 72.753906 C 260.347656 72.753906 258.847656 72.210938 257.890625 71.125 C 256.933594 70.042969 256.433594 68.582031 256.433594 66.789062 L 256.433594 54.40625 C 256.269531 54.367188 255.976562 54.242188 255.476562 54.117188 C 254.980469 53.992188 254.480469 53.90625 253.9375 53.90625 C 253.066406 53.90625 252.398438 54.117188 251.898438 54.492188 C 251.398438 54.910156 251.152344 55.492188 251.152344 56.324219 L 251.152344 67.875 C 251.152344 69.375 251.398438 70.75 251.898438 71.917969 C 252.398438 73.085938 253.105469 74.085938 254.023438 74.878906 C 254.894531 75.671875 255.976562 76.253906 257.265625 76.671875 C 258.515625 77.089844 259.886719 77.296875 261.386719 77.296875 C 262.96875 77.296875 264.382812 77.046875 265.714844 76.503906 C 267.003906 75.964844 268.003906 75.253906 268.585938 74.335938 C 268.585938 80.882812 267.710938 84.71875 260.84375 84.71875 C 257.058594 84.71875 254.394531 83.882812 253.355469 83.425781 C 253.1875 83.800781 252.398438 85.34375 252.816406 86.679688 C 253.105469 87.554688 253.898438 87.96875 254.730469 88.21875 C 257.140625 88.929688 262.050781 89.261719 265.171875 88.761719 C 271.664062 87.71875 273.703125 83.257812 273.703125 74.796875 L 273.703125 54.492188 C 273.535156 54.449219 273.246094 54.324219 272.746094 54.199219 C 272.328125 53.992188 271.789062 53.949219 271.246094 53.949219 "/>
</g>
</svg>
